<?xml version="1.0" standalone="no"?>
<!DOCTYPE svg PUBLIC "-//W3C//DTD SVG 20010904//EN"
 "http://www.w3.org/TR/2001/REC-SVG-20010904/DTD/svg10.dtd">
<svg version="1.0" xmlns="http://www.w3.org/2000/svg"
 width="500.000000pt" height="500.000000pt" viewBox="0 0 500.000000 500.000000"
 preserveAspectRatio="xMidYMid meet">
<metadata>
Created by potrace 1.14, written by Peter Selinger 2001-2017
</metadata>
<g transform="translate(0.000000,500.000000) scale(0.100000,-0.100000)"
fill="#000000" stroke="none">
<path d="M2095 2491 c-37 -16 -72 -60 -110 -139 -20 -42 -51 -105 -67 -139
-21 -44 -41 -69 -65 -83 -52 -30 -38 -45 47 -48 l73 -3 -7 32 c-3 18 -1 47 6
66 11 31 15 33 61 33 49 0 49 0 43 -27 -4 -16 -16 -40 -26 -55 -11 -15 -20
-32 -20 -38 0 -6 38 -10 100 -10 l101 0 -7 34 c-4 25 3 66 26 141 38 131 38
188 -2 218 -30 22 -119 33 -153 18z m35 -103 c0 -18 -6 -53 -14 -78 -13 -43
-15 -45 -55 -48 -44 -3 -47 1 -30 45 38 101 99 151 99 81z"/>
<path d="M1571 2472 c-46 -25 -74 -76 -67 -125 5 -46 24 -68 92 -112 60 -39
68 -48 59 -75 -4 -14 -15 -20 -35 -20 -22 0 -39 12 -72 50 -44 51 -67 61 -87
36 -16 -20 -43 -116 -37 -132 8 -21 46 -17 72 7 l22 20 33 -20 c46 -28 141
-29 187 -1 41 25 72 76 72 119 0 37 -40 82 -119 134 -50 33 -55 70 -9 75 20 2
36 -7 72 -45 38 -39 49 -46 63 -37 20 12 54 109 46 129 -8 21 -47 18 -67 -4
-18 -19 -18 -19 -49 0 -42 25 -130 26 -176 1z"/>
<path d="M2440 2483 c-41 -15 -90 -82 -90 -123 0 -39 31 -81 83 -114 66 -42
80 -60 72 -86 -4 -14 -15 -20 -36 -20 -29 0 -40 8 -91 69 -42 50 -62 42 -87
-35 -13 -36 -20 -72 -17 -80 8 -21 46 -17 72 7 l22 20 33 -20 c41 -25 136 -28
177 -7 54 28 77 63 77 118 0 46 -3 53 -40 85 -22 19 -57 44 -78 56 -30 17 -37
26 -35 47 2 19 10 26 30 28 21 3 36 -7 70 -42 58 -63 73 -60 96 17 10 34 17
68 14 75 -6 17 -42 15 -64 -5 -17 -15 -21 -15 -54 0 -33 16 -121 22 -154 10z"/>
<path d="M2794 2458 c4 -21 -3 -64 -18 -118 -14 -47 -32 -112 -42 -145 -9 -33
-26 -67 -37 -76 -36 -29 -12 -39 99 -39 84 0 104 3 104 14 0 8 -4 18 -10 21
-13 8 -13 56 0 89 9 24 14 26 73 26 108 0 183 53 193 136 6 50 -12 84 -56 106
-28 15 -62 18 -174 18 l-138 0 6 -32z m216 -38 c12 -23 0 -82 -25 -117 -20
-28 -81 -34 -71 -7 3 8 14 44 23 80 15 55 20 64 40 64 12 0 27 -9 33 -20z"/>
<path d="M3199 2474 c-7 -8 -14 -40 -17 -70 -4 -51 -3 -54 18 -54 13 0 37 16
59 40 20 22 44 40 54 40 21 0 21 6 -2 -66 -10 -32 -28 -96 -41 -141 -12 -45
-31 -90 -41 -99 -41 -37 -26 -45 83 -42 l102 3 1 55 c1 46 54 264 71 292 9 14
35 -13 51 -50 11 -28 18 -33 41 -30 22 2 30 12 46 55 30 86 36 83 -202 83
-178 0 -212 -2 -223 -16z"/>
</g>
</svg>
